<svg xmlns="http://www.w3.org/2000/svg" width="20.517" height="20.516" viewBox="0 0 20.517 20.516">
  <g id="call" transform="translate(-83.822 -75.654)">
    <path id="Path_13" data-name="Path 13" d="M103.763,91.261l-3.151-2.492a1.555,1.555,0,0,0-2.125.2c-.562.66-.953,1.075-1.05,1.2-.953.953-2.98-.415-5.081-2.516s-3.493-4.1-2.541-5.081c.122-.122.537-.489,1.2-1.05a1.532,1.532,0,0,0,.2-2.125L88.74,76.238a1.582,1.582,0,0,0-1.832-.464,8.378,8.378,0,0,0-2.15,1.393c-2.272,2.3-.293,8.4,4.69,13.387s11.091,6.962,13.362,4.666a7.785,7.785,0,0,0,1.393-2.15,1.512,1.512,0,0,0-.44-1.808Z" fill="#fff"/>
  </g>
</svg>
