<svg xmlns="http://www.w3.org/2000/svg" width="525" height="472.5" viewBox="0 0 525 472.5">
  <g id="Debt_management" data-name="Debt management" transform="translate(-87.5 -43.75)">
    <path id="Path_3952" data-name="Path 3952" d="M319.38,280h30.625a8.751,8.751,0,0,0,0-17.5h-17.5v-8.75a8.75,8.75,0,0,0-17.5,0v8.75c0,.152.078.281.086.434a30.578,30.578,0,0,0,4.289,60.816h8.75a13.126,13.126,0,0,1,0,26.25H297.5a8.751,8.751,0,0,0,0,17.5H315v8.75a8.75,8.75,0,0,0,17.5,0v-9.191a30.581,30.581,0,0,0-4.375-60.808h-8.75a13.126,13.126,0,0,1,0-26.25Z"/>
    <path id="Path_3953" data-name="Path 3953" d="M323.75,218.75A96.36,96.36,0,0,0,227.5,315c5.285,127.69,187.23,127.65,192.5,0a96.36,96.36,0,0,0-96.25-96.25Zm0,175A78.834,78.834,0,0,1,245,315c4.324-104.47,153.2-104.44,157.5,0a78.834,78.834,0,0,1-78.75,78.75Z"/>
    <path id="Path_3954" data-name="Path 3954" d="M183.75,201.25h280a26.252,26.252,0,0,0,0-52.5h-280a26.252,26.252,0,0,0,0,52.5Zm0-35h280a8.751,8.751,0,0,1,0,17.5h-280a8.751,8.751,0,0,1,0-17.5Z"/>
    <path id="Path_3955" data-name="Path 3955" d="M577.5,148.75H560v-17.5a35.037,35.037,0,0,0-35-35H472.5V70A26.25,26.25,0,1,0,420,70V96.25H350V70a26.25,26.25,0,1,0-52.5,0V96.25h-70V70A26.25,26.25,0,1,0,175,70V96.25H122.5a35.037,35.037,0,0,0-35,35v297.5a35.037,35.037,0,0,0,35,35H140v17.5a35.037,35.037,0,0,0,35,35H577.5a35.037,35.037,0,0,0,35-35V183.75a35.037,35.037,0,0,0-35-35ZM437.5,70A8.751,8.751,0,0,1,455,70v35a8.751,8.751,0,0,1-17.5,0ZM315,70a8.751,8.751,0,0,1,17.5,0v35a8.751,8.751,0,0,1-17.5,0ZM192.5,70A8.751,8.751,0,0,1,210,70v35a8.751,8.751,0,0,1-17.5,0ZM105,428.75V131.25a17.525,17.525,0,0,1,17.5-17.5h54.113a26.206,26.206,0,0,0,49.273,0h73.227a26.206,26.206,0,0,0,49.273,0h73.227a26.206,26.206,0,0,0,49.273,0H525a17.525,17.525,0,0,1,17.5,17.5v297.5a17.525,17.525,0,0,1-17.5,17.5H122.5a17.525,17.525,0,0,1-17.5-17.5Zm490,52.5a17.525,17.525,0,0,1-17.5,17.5H175a17.525,17.525,0,0,1-17.5-17.5v-17.5H525a35.037,35.037,0,0,0,35-35V166.25h17.5a17.525,17.525,0,0,1,17.5,17.5Z"/>
    <path id="Path_3956" data-name="Path 3956" d="M140,297.5h52.5A17.525,17.525,0,0,0,210,280V245a17.525,17.525,0,0,0-17.5-17.5H140A17.525,17.525,0,0,0,122.5,245v35A17.525,17.525,0,0,0,140,297.5Zm0-52.5h52.5l.016,35H140Z"/>
    <path id="Path_3957" data-name="Path 3957" d="M210,376.25v-35a17.525,17.525,0,0,0-17.5-17.5H140a17.525,17.525,0,0,0-17.5,17.5v35a17.525,17.525,0,0,0,17.5,17.5h52.5a17.525,17.525,0,0,0,17.5-17.5Zm-70-35h52.5l.016,35H140Z"/>
    <path id="Path_3958" data-name="Path 3958" d="M437.5,245v35A17.525,17.525,0,0,0,455,297.5h52.5A17.525,17.525,0,0,0,525,280V245a17.525,17.525,0,0,0-17.5-17.5H455A17.525,17.525,0,0,0,437.5,245Zm70,35H455V245h52.5Z"/>
    <path id="Path_3959" data-name="Path 3959" d="M507.5,323.75H455a17.525,17.525,0,0,0-17.5,17.5v35a17.525,17.525,0,0,0,17.5,17.5h52.5a17.525,17.525,0,0,0,17.5-17.5v-35a17.525,17.525,0,0,0-17.5-17.5Zm0,52.5H455v-35h52.5Z"/>
  </g>
</svg>
