<svg xmlns="http://www.w3.org/2000/svg" width="32.878" height="26.717" viewBox="0 0 32.878 26.717">
  <path id="icons8-twitter" d="M34.877,7.6A13.465,13.465,0,0,1,31,8.661a6.756,6.756,0,0,0,2.965-3.731,13.525,13.525,0,0,1-4.284,1.638,6.747,6.747,0,0,0-11.667,4.614,6.82,6.82,0,0,0,.174,1.536,19.149,19.149,0,0,1-13.9-7.048,6.757,6.757,0,0,0,2.088,9.006,6.731,6.731,0,0,1-3.055-.843v.085a6.746,6.746,0,0,0,5.411,6.613,6.747,6.747,0,0,1-1.778.236,6.868,6.868,0,0,1-1.268-.12,6.753,6.753,0,0,0,6.3,4.685A13.61,13.61,0,0,1,2,28.124a19.1,19.1,0,0,0,10.34,3.03c12.407,0,19.19-10.278,19.19-19.191q0-.438-.019-.872A13.725,13.725,0,0,0,34.877,7.6Z" transform="translate(-1.999 -4.436)" fill="#fff"/>
</svg>
