<svg xmlns="http://www.w3.org/2000/svg" width="44.35" height="31.524" viewBox="0 0 44.35 31.524">
  <path id="icons8-youtube" d="M24.175,4A124.551,124.551,0,0,0,7.767,5.5l-.023.022C4.492,5.962,2,8.309,2,11.164v17.2c.007,2.816,2.448,5.211,5.76,5.65l.007.008a124.324,124.324,0,0,0,16.408,1.506,124.323,124.323,0,0,0,16.408-1.506l0,0c3.316-.438,5.76-2.836,5.764-5.655v-17.2c0-2.817-2.447-5.214-5.76-5.653L40.583,5.5A124.549,124.549,0,0,0,24.175,4Zm-5.117,9.167L32.7,19.76,19.058,26.353Z" transform="translate(-2 -4)" fill="#fff"/>
</svg>
