<svg xmlns="http://www.w3.org/2000/svg" width="28.802" height="28.802" viewBox="0 0 28.802 28.802">
  <path id="icons8-linkedin" d="M29.373,4H7.429A3.43,3.43,0,0,0,4,7.429V29.373A3.43,3.43,0,0,0,7.429,32.8H29.373A3.43,3.43,0,0,0,32.8,29.373V7.429A3.43,3.43,0,0,0,29.373,4ZM12.915,14.972V28H8.8V14.972ZM8.8,11.18a1.828,1.828,0,0,1,2.057-1.694,1.855,1.855,0,0,1,2.057,1.694,1.825,1.825,0,0,1-2.057,1.735A1.856,1.856,0,0,1,8.8,11.18ZM28,28H23.887V21.144c0-1.372-.686-2.743-2.4-2.77h-.055c-1.66,0-2.345,1.413-2.345,2.77V28H14.972V14.972h4.115v1.756a5.137,5.137,0,0,1,3.984-1.756c2.722,0,4.931,1.872,4.931,5.664Z" transform="translate(-4 -4)" fill="#fff"/>
</svg>
