<svg xmlns="http://www.w3.org/2000/svg" width="33.624" height="33.624" viewBox="0 0 33.624 33.624">
  <path id="icons8-instagram" d="M12.934,3A9.944,9.944,0,0,0,3,12.934V26.69a9.944,9.944,0,0,0,9.934,9.934H26.69a9.944,9.944,0,0,0,9.934-9.934V12.934A9.944,9.944,0,0,0,26.69,3ZM28.982,9.113a1.528,1.528,0,1,1-1.528,1.528A1.533,1.533,0,0,1,28.982,9.113Zm-9.17,2.293a8.406,8.406,0,1,1-8.406,8.406A8.411,8.411,0,0,1,19.812,11.406Zm0,1.528a6.878,6.878,0,1,0,6.878,6.878A6.888,6.888,0,0,0,19.812,12.934Z" transform="translate(-3 -3)" fill="#fff"/>
</svg>
