<?xml version="1.0" encoding="UTF-8"?><svg id="Layer_2" xmlns="http://www.w3.org/2000/svg" viewBox="0 0 1319.65 366.45"><defs><style>.cls-1{fill:#fff;}.cls-2{fill:#cecece;}</style></defs><g id="Layer_1-2"><g><polygon class="cls-1" points="368.66 278.87 327.91 278.87 241.35 77.02 285.37 77.02 348.14 233.51 411.19 77.02 455.22 77.02 368.66 278.87"/><path class="cls-1" d="M510.25,96.54c0,27.28-42.83,27.28-42.83,0s42.83-27.28,42.83,0m-39.56,181.47h36.29V135.88h-36.29v142.13Z"/><path class="cls-1" d="M647.66,278.01v-74.08c0-21.54-12.2-37.9-35.4-37.9s-37.48,18.09-37.48,39.62v72.36h-35.99V136.17h32.42l2.38,19.24c14.87-14.07,29.74-21.25,48.19-21.25,34.5,0,62.17,24.98,62.17,69.49v74.37h-36.29Z"/><path class="cls-1" d="M760.1,96.54v40.2h40.45v30.15h-40.75v61.16c0,13.49,7.73,20.1,19.04,20.1,5.65,0,12.2-1.72,17.55-4.31l10.11,29.86c-10.41,4.02-19.04,5.74-30.04,6.03-31.83,1.15-52.65-16.37-52.65-51.68v-61.16h-27.37v-30.15h27.37v-36.47l36.29-3.73Z"/><path class="cls-1" d="M943.91,136.46h34.8v141.56h-34.21l-1.79-20.67c-8.33,16.65-31.23,24.69-47.59,24.98-43.43,.29-75.55-25.55-75.55-75.23s33.61-74.37,76.44-74.08c19.63,0,38.37,8.9,46.7,22.97l1.19-19.52Zm-88.04,70.63c0,26.99,19.33,43.07,43.43,43.07,57.11,0,57.11-85.85,0-85.85-24.09,0-43.43,15.79-43.43,42.78"/><path class="cls-1" d="M1124.46,122.1l26.77,19.52-16.36,20.1c11.3,12.35,15.47,26.42,15.47,41.92,0,17.52-6.84,42.21-30.94,52.83,24.39,11.77,30.34,28.71,30.34,46.8,0,39.05-30.93,63.17-73.47,63.17s-74.36-24.98-74.36-63.17h35.99c0,18.38,17.55,30.44,38.37,30.44s37.18-10.91,37.18-30.44-19.04-28.43-37.18-28.43c-45.81,0-74.36-26.99-74.36-71.21s33.31-71.78,74.36-71.78c11.6,0,23.5,1.44,33.61,8.04l14.58-17.8Zm-86.56,81.54c0,24.69,17.25,39.34,38.37,39.34s38.07-14.93,38.07-39.34-17.25-39.91-38.07-39.91-38.37,15.22-38.37,39.91"/><path class="cls-1" d="M1204.47,219.72c2.38,17.52,18.15,30.15,43.72,30.15,13.39,0,30.93-4.88,39.26-13.21l23.2,22.11c-15.47,15.51-40.75,22.97-63.06,22.97-50.56,0-80.61-30.15-80.61-75.52s30.34-74.08,77.93-74.08,79.72,29.29,74.07,87.57h-114.52Zm79.72-29c-2.38-18.38-17.25-27.56-38.07-27.56-19.63,0-35.69,9.19-41.05,27.56h79.12Z"/><path class="cls-2" d="M129.13,205.93L23.57,157.78C9.59,151.4,.61,137.45,.61,122.07c0-28.5,29.42-47.5,55.4-35.77l40.2,18.15-16.07,7.09c-5.87,2.59-5.92,10.9-.08,13.56l108.2,49.25c14.05,6.4,23.08,20.42,23.08,35.86,0,28.98-30.22,48.04-56.37,35.55l-38.08-18.18,12.51-6.26c6.42-3.21,6.25-12.42-.27-15.4"/><path class="cls-1" d="M56.34,175.64l38.95,17.89-14.15,6.97c-6.25,3.08-6.08,12.04,.27,14.88l76.07,34.01c32.76,14.65,53.85,47.18,53.85,83.07L23.66,247.16C9.63,240.78,.61,226.78,.61,211.37c0-28.66,29.68-47.69,55.73-35.73"/><path class="cls-1" d="M155.61,156.83l-38.95-17.89,14.11-6.95c6.26-3.08,6.1-12.07-.28-14.92L54.47,83.07C21.71,68.42,.61,35.89,.61,0L188.29,85.31c14.04,6.38,23.05,20.38,23.05,35.79,0,28.66-29.68,47.69-55.73,35.73"/><path class="cls-2" d="M209.47,7.15L117.39,50.65l63.17,28.4c18.42-8.82,29.95-27.62,29.47-48.03l-.56-23.88Z"/><path class="cls-2" d="M.57,324.45l92.08-43.5-63.16-28.4C11.08,261.37-.46,280.16,.01,300.57l.56,23.88Z"/></g></g></svg>