<?xml version="1.0" encoding="UTF-8"?><svg id="Layer_2" xmlns="http://www.w3.org/2000/svg" viewBox="0 0 1265.54 300.59"><defs><style>.cls-1{fill:#fff;}.cls-2{fill:#cecece;}</style></defs><g id="Layer_1-2"><g><polygon class="cls-1" points="314.55 213.02 273.8 213.02 187.24 11.16 231.26 11.16 294.02 167.65 357.08 11.16 401.1 11.16 314.55 213.02"/><path class="cls-1" d="M456.13,30.69c0,27.28-42.83,27.28-42.83,0s42.83-27.28,42.83,0m-39.56,181.47h36.29V70.03h-36.29V212.16Z"/><path class="cls-1" d="M593.55,212.16v-74.08c0-21.54-12.2-37.9-35.4-37.9s-37.48,18.09-37.48,39.62v72.36h-35.99V70.31h32.42l2.38,19.24c14.87-14.07,29.74-21.25,48.19-21.25,34.5,0,62.17,24.98,62.17,69.49v74.37h-36.29Z"/><path class="cls-1" d="M705.98,30.69v40.2h40.45v30.15h-40.75v61.16c0,13.49,7.73,20.1,19.04,20.1,5.65,0,12.2-1.72,17.55-4.31l10.11,29.86c-10.41,4.02-19.04,5.74-30.04,6.03-31.83,1.15-52.65-16.37-52.65-51.68v-61.16h-27.37v-30.15h27.37V34.42l36.29-3.73Z"/><path class="cls-1" d="M889.8,70.6h34.8V212.16h-34.21l-1.79-20.67c-8.33,16.65-31.23,24.69-47.59,24.98-43.43,.29-75.55-25.55-75.55-75.23s33.61-74.37,76.44-74.08c19.63,0,38.37,8.9,46.7,22.97l1.19-19.52Zm-88.04,70.63c0,26.99,19.33,43.07,43.43,43.07,57.11,0,57.11-85.85,0-85.85-24.09,0-43.43,15.79-43.43,42.78"/><path class="cls-1" d="M1070.34,56.24l26.77,19.52-16.36,20.1c11.3,12.35,15.47,26.42,15.47,41.92,0,17.52-6.84,42.21-30.94,52.83,24.39,11.77,30.34,28.71,30.34,46.8,0,39.05-30.93,63.17-73.47,63.17s-74.36-24.98-74.36-63.17h35.99c0,18.38,17.55,30.44,38.37,30.44s37.18-10.91,37.18-30.44-19.04-28.43-37.18-28.43c-45.81,0-74.36-26.99-74.36-71.21s33.31-71.78,74.36-71.78c11.6,0,23.5,1.44,33.61,8.04l14.58-17.8Zm-86.56,81.54c0,24.69,17.25,39.34,38.37,39.34s38.07-14.93,38.07-39.34-17.25-39.91-38.07-39.91-38.37,15.22-38.37,39.91"/><path class="cls-1" d="M1150.35,153.87c2.38,17.52,18.15,30.15,43.72,30.15,13.39,0,30.93-4.88,39.26-13.21l23.2,22.11c-15.47,15.51-40.75,22.97-63.06,22.97-50.56,0-80.61-30.15-80.61-75.52s30.34-74.08,77.93-74.08,79.72,29.29,74.07,87.57h-114.52Zm79.72-29c-2.38-18.38-17.25-27.56-38.07-27.56-19.63,0-35.69,9.19-41.05,27.56h79.12Z"/><path class="cls-2" d="M87.45,139.47L15.96,106.86C6.49,102.54,.42,93.08,.42,82.67c0-19.3,19.93-32.17,37.52-24.23l27.23,12.29-10.88,4.8c-3.98,1.75-4.01,7.38-.05,9.18l73.28,33.35c9.52,4.33,15.63,13.83,15.63,24.28,0,19.62-20.47,32.53-38.18,24.08l-25.79-12.31,8.47-4.24c4.35-2.17,4.23-8.41-.19-10.43"/><path class="cls-1" d="M38.16,118.95l26.38,12.12-9.59,4.72c-4.23,2.08-4.12,8.15,.19,10.08l51.52,23.04c22.19,9.92,36.47,31.96,36.47,56.26L16.02,167.39c-9.51-4.32-15.61-13.8-15.61-24.24,0-19.41,20.1-32.3,37.74-24.2"/><path class="cls-1" d="M105.39,106.21l-26.38-12.12,9.56-4.7c4.24-2.09,4.13-8.18-.19-10.11l-51.49-23.02C14.7,46.34,.42,24.3,.42,0L127.52,57.77c9.51,4.32,15.61,13.8,15.61,24.24,0,19.41-20.1,32.3-37.74,24.2"/><path class="cls-2" d="M141.86,4.84l-62.36,29.47,42.78,19.23c12.47-5.97,20.28-18.7,19.96-32.53l-.38-16.17Z"/><path class="cls-2" d="M.39,219.74l62.36-29.46-42.78-19.24C7.5,177.01-.31,189.74,0,203.56l.38,16.17Z"/></g></g></svg>