<svg xmlns="http://www.w3.org/2000/svg" width="27.589" height="17.933" viewBox="0 0 27.589 17.933">
  <g id="mail" transform="translate(-125.998 -134.4)">
    <path id="Path_14" data-name="Path 14" d="M128.068,134.4a2.074,2.074,0,0,0-.765.151l11.7,10.227a1.074,1.074,0,0,0,1.552,0l11.725-10.227a2.068,2.068,0,0,0-.765-.151h-23.45Zm-2.048,1.778a2.105,2.105,0,0,0-.022.291v13.794a2.065,2.065,0,0,0,2.069,2.069h23.45a2.065,2.065,0,0,0,2.069-2.069V136.469a2.105,2.105,0,0,0-.022-.291l-11.65,10.163a3.259,3.259,0,0,1-4.268,0L126.02,136.178Z" transform="translate(0 0)" fill="#fff"/>
  </g>
</svg>
